<svg width="836" height="782" viewBox="0 0 836 782" fill="none" xmlns="http://www.w3.org/2000/svg">
<path d="M461.031 280.35L375.214 281.026L375.225 282.359L461.041 281.683" fill="#08EEFE"/>
<path d="M418.238 530.112L416.886 527.813C415.939 528.368 414.884 528.483 413.899 528.23C412.915 527.972 412.049 527.357 411.491 526.413C410.937 525.467 410.822 524.412 411.074 523.425C411.333 522.443 411.946 521.576 412.892 521.019C413.837 520.465 414.893 520.35 415.878 520.603C416.862 520.861 417.728 521.474 418.285 522.418C418.84 523.365 418.955 524.421 418.702 525.406C418.444 526.39 417.83 527.256 416.886 527.813L418.238 530.112L419.589 532.411C424.004 529.813 425.477 524.133 422.883 519.715C420.284 515.301 414.604 513.827 410.189 516.421C405.772 519.019 404.3 524.7 406.894 529.115C409.491 533.531 415.171 535.006 419.589 532.411L418.238 530.112Z" fill="#08EEFE"/>
<path d="M413.638 255.729L414.989 258.028C415.935 257.474 416.99 257.358 417.975 257.611C418.959 257.869 419.826 258.484 420.383 259.428C420.937 260.373 421.052 261.429 420.799 262.414C420.541 263.398 419.927 264.265 418.983 264.821C418.036 265.376 416.981 265.491 415.996 265.238C415.012 264.98 414.145 264.366 413.589 263.422C413.034 262.477 412.919 261.42 413.172 260.435C413.43 259.451 414.044 258.585 414.989 258.028L413.638 255.729L412.286 253.431C407.871 256.028 406.397 261.708 408.991 266.125C411.589 270.54 417.269 272.013 421.686 269.419C426.101 266.82 427.574 261.142 424.98 256.725C422.382 252.31 416.703 250.835 412.286 253.431L413.638 255.729Z" fill="#08EEFE"/>
<path d="M464.538 267.071C461.576 262.034 463.26 255.545 468.299 252.583C473.338 249.62 479.827 251.304 482.788 256.342C485.752 261.382 484.068 267.87 479.029 270.833C473.99 273.795 467.501 272.112 464.538 267.071ZM480.007 272.496C480.128 272.425 480.246 272.348 480.364 272.273L481.228 273.442L482.657 272.387L481.794 271.219C482.009 271.036 482.217 270.847 482.418 270.653L483.503 271.613L484.681 270.285L483.596 269.323C483.767 269.098 483.932 268.871 484.087 268.637L485.347 269.352L486.223 267.805L484.962 267.092C485.083 266.837 485.192 266.578 485.296 266.318L486.68 266.755L487.216 265.062L485.831 264.624C485.896 264.35 485.954 264.075 486.001 263.797L487.445 263.939L487.618 262.17L486.173 262.03C486.181 261.749 486.18 261.469 486.169 261.186L487.608 261.025L487.409 259.26L485.97 259.421C485.919 259.146 485.855 258.873 485.786 258.599L487.162 258.14L486.6 256.455L485.222 256.914C485.116 256.656 484.998 256.401 484.872 256.148L486.125 255.412L485.225 253.879L483.972 254.616C483.812 254.384 483.646 254.157 483.473 253.938L484.544 252.959L483.344 251.647L482.275 252.627C482.07 252.434 481.86 252.243 481.646 252.064L482.487 250.888L481.041 249.855L480.2 251.034C479.959 250.887 479.714 250.749 479.465 250.62L480.045 249.29L478.416 248.581L477.836 249.91C477.571 249.817 477.302 249.733 477.033 249.658L477.323 248.235L475.582 247.879L475.292 249.302C475.013 249.265 474.734 249.234 474.453 249.217L474.442 247.767L472.665 247.781L472.677 249.229C472.398 249.251 472.119 249.285 471.84 249.326L471.527 247.91L469.793 248.294L470.105 249.708C469.837 249.789 469.571 249.879 469.306 249.977L468.705 248.657L467.088 249.391L467.689 250.714C467.567 250.782 467.443 250.848 467.321 250.919C467.2 250.991 467.082 251.067 466.963 251.141L466.099 249.972L464.671 251.028L465.533 252.195C465.318 252.379 465.11 252.567 464.91 252.763L463.825 251.802L462.647 253.131L463.732 254.092C463.56 254.317 463.395 254.544 463.241 254.778L461.98 254.063L461.104 255.608L462.366 256.323C462.244 256.577 462.135 256.836 462.032 257.098L460.647 256.659L460.112 258.354L461.497 258.792C461.431 259.064 461.374 259.339 461.326 259.616L459.882 259.477L459.71 261.245L461.155 261.385C461.146 261.665 461.148 261.947 461.16 262.227L459.72 262.39L459.919 264.156L461.356 263.993C461.407 264.269 461.471 264.544 461.542 264.816L460.166 265.274L460.728 266.96L462.105 266.5C462.212 266.758 462.329 267.014 462.455 267.266L461.202 268.003L462.103 269.535L463.356 268.798C463.515 269.031 463.681 269.258 463.855 269.476L462.784 270.457L463.983 271.767L465.053 270.789C465.257 270.983 465.465 271.171 465.681 271.349L464.841 272.528L466.287 273.56L467.128 272.381C467.369 272.528 467.613 272.665 467.863 272.795L467.283 274.126L468.911 274.836L469.491 273.503C469.756 273.598 470.025 273.681 470.295 273.757L470.005 275.181L471.745 275.536L472.036 274.113C472.314 274.15 472.594 274.18 472.875 274.199L472.885 275.647L474.662 275.634L474.65 274.185C474.93 274.163 475.208 274.129 475.488 274.09L475.801 275.505L477.535 275.122L477.223 273.707C477.491 273.626 477.757 273.536 478.022 273.437L478.623 274.759L480.239 274.023L479.638 272.7C479.761 272.633 479.885 272.568 480.007 272.496Z" fill="#08EEFE"/>
<path d="M325.971 491.838C324.251 488.913 325.229 485.146 328.154 483.426C331.079 481.707 334.846 482.684 336.566 485.609C338.287 488.536 337.308 492.302 334.383 494.021C331.458 495.741 327.691 494.765 325.971 491.838ZM334.951 494.987L335.158 494.858L335.659 495.537L336.49 494.924L335.989 494.245C336.113 494.138 336.235 494.03 336.351 493.917L336.98 494.474L337.665 493.702L337.034 493.145C337.135 493.015 337.231 492.883 337.319 492.747L338.052 493.161L338.56 492.263L337.828 491.849C337.897 491.702 337.961 491.552 338.022 491.4L338.825 491.654L339.137 490.671L338.331 490.417C338.369 490.258 338.402 490.098 338.431 489.939L339.27 490.019L339.369 488.993L338.531 488.912C338.535 488.748 338.534 488.586 338.527 488.422L339.364 488.327L339.249 487.302L338.414 487.397C338.383 487.237 338.347 487.079 338.306 486.919L339.105 486.652L338.778 485.675L337.979 485.942C337.917 485.792 337.848 485.643 337.775 485.496L338.503 485.068L337.98 484.179L337.253 484.607C337.16 484.473 337.064 484.341 336.963 484.214L337.584 483.645L336.889 482.883L336.268 483.452C336.149 483.34 336.027 483.23 335.902 483.126L336.391 482.441L335.552 481.843L335.062 482.528C334.923 482.443 334.781 482.362 334.636 482.288L334.972 481.515L334.028 481.103L333.69 481.876C333.536 481.821 333.38 481.772 333.223 481.728L333.394 480.903L332.383 480.696L332.214 481.522C332.052 481.501 331.889 481.482 331.727 481.472L331.721 480.63L330.689 480.638L330.696 481.48C330.535 481.493 330.373 481.512 330.209 481.536L330.029 480.714L329.021 480.937L329.202 481.758C329.047 481.804 328.892 481.857 328.738 481.913L328.391 481.148L327.45 481.574L327.799 482.342L327.586 482.461L327.379 482.589L326.877 481.911L326.048 482.525L326.548 483.201C326.423 483.308 326.302 483.418 326.186 483.531L325.558 482.973L324.872 483.745L325.503 484.303C325.404 484.434 325.308 484.566 325.218 484.701L324.486 484.285L323.977 485.183L324.71 485.598C324.639 485.745 324.576 485.896 324.517 486.047L323.712 485.794L323.402 486.777L324.205 487.03C324.167 487.189 324.134 487.349 324.107 487.51L323.269 487.429L323.168 488.455L324.007 488.537C324.002 488.699 324.002 488.863 324.009 489.026L323.174 489.12L323.289 490.144L324.123 490.051C324.153 490.211 324.19 490.37 324.231 490.529L323.433 490.794L323.759 491.773L324.559 491.507C324.62 491.657 324.689 491.805 324.761 491.951L324.035 492.378L324.557 493.267L325.283 492.84C325.377 492.975 325.474 493.108 325.574 493.235L324.953 493.803L325.649 494.563L326.269 493.995C326.389 494.109 326.508 494.218 326.634 494.322L326.147 495.005L326.986 495.605L327.475 494.92C327.614 495.007 327.756 495.086 327.901 495.161L327.564 495.933L328.51 496.345L328.847 495.573C329 495.626 329.156 495.675 329.313 495.718L329.145 496.546L330.154 496.752L330.324 495.925C330.485 495.947 330.647 495.964 330.811 495.975L330.817 496.816L331.848 496.808L331.841 495.967C332.004 495.955 332.166 495.936 332.328 495.912L332.508 496.734L333.517 496.51L333.334 495.69C333.49 495.643 333.644 495.59 333.798 495.533L334.147 496.301L335.086 495.874L334.737 495.105L334.951 494.987Z" fill="#08EEFE"/>
<path d="M590.62 316.886C589.081 314.267 589.955 310.895 592.574 309.355C595.195 307.814 598.567 308.69 600.106 311.309C601.646 313.928 600.772 317.3 598.151 318.841C595.532 320.381 592.16 319.505 590.62 316.886ZM598.503 322.41L598.378 321.735C598.309 321.359 598.5 320.99 598.839 320.814C598.959 320.753 599.079 320.687 599.196 320.618C599.309 320.552 599.418 320.483 599.526 320.412L600.487 321.356C600.823 321.689 601.364 321.683 601.694 321.347L602.712 320.314C603.043 319.979 603.039 319.437 602.702 319.104L602.211 318.623C601.942 318.356 601.884 317.946 602.061 317.61L602.134 317.465C602.303 317.124 602.669 316.929 603.045 316.991L603.724 317.105C604.19 317.184 604.631 316.871 604.708 316.405L604.948 314.975C605.027 314.51 604.713 314.068 604.247 313.991L603.571 313.876C603.198 313.814 602.914 313.514 602.866 313.141C602.831 312.863 602.781 312.588 602.714 312.314C602.625 311.947 602.784 311.567 603.108 311.377L603.701 311.028C604.108 310.789 604.244 310.265 604.005 309.858L603.27 308.609C603.031 308.202 602.507 308.066 602.1 308.305L601.509 308.652C601.181 308.846 600.769 308.792 600.489 308.535L600.368 308.424C600.083 308.173 599.99 307.77 600.148 307.423L600.433 306.8C600.628 306.371 600.44 305.865 600.01 305.669L598.691 305.066C598.262 304.87 597.755 305.06 597.56 305.488L597.273 306.114C597.115 306.461 596.748 306.654 596.37 306.604L596.211 306.583C595.833 306.54 595.523 306.263 595.456 305.89L595.33 305.213C595.245 304.749 594.799 304.442 594.335 304.528L592.91 304.79C592.445 304.876 592.138 305.322 592.224 305.787L592.348 306.461C592.418 306.838 592.227 307.207 591.887 307.381C591.767 307.443 591.648 307.509 591.53 307.578C591.418 307.644 591.308 307.711 591.2 307.783L590.24 306.839C589.904 306.508 589.362 306.512 589.032 306.847L588.014 307.881C587.683 308.217 587.687 308.759 588.024 309.09L588.514 309.572C588.784 309.839 588.842 310.249 588.666 310.587L588.592 310.73C588.423 311.07 588.057 311.267 587.681 311.203L587.004 311.09C586.538 311.013 586.097 311.326 586.018 311.791L585.779 313.22C585.7 313.686 586.013 314.127 586.48 314.205L587.158 314.32C587.529 314.382 587.812 314.68 587.861 315.054C587.895 315.331 587.946 315.607 588.013 315.882C588.101 316.248 587.943 316.628 587.618 316.82L587.026 317.168C586.619 317.407 586.483 317.931 586.722 318.337L587.457 319.587C587.696 319.994 588.22 320.13 588.627 319.89L589.217 319.543C589.546 319.35 589.957 319.402 590.238 319.661L590.358 319.77C590.643 320.021 590.737 320.425 590.578 320.771L590.295 321.394C590.098 321.823 590.287 322.331 590.716 322.527L592.034 323.129C592.464 323.324 592.972 323.136 593.168 322.706L593.453 322.081C593.612 321.736 593.978 321.54 594.355 321.592L594.516 321.611C594.893 321.655 595.201 321.932 595.272 322.307L595.396 322.982C595.481 323.447 595.928 323.754 596.392 323.668L597.816 323.404C598.281 323.318 598.589 322.874 598.503 322.41Z" fill="#08EEFE"/>
<path d="M247.354 394.757C245.815 392.139 246.69 388.766 249.31 387.226C251.929 385.686 255.301 386.562 256.841 389.18C258.381 391.801 257.506 395.172 254.887 396.712C252.267 398.252 248.895 397.378 247.354 394.757ZM255.238 400.281L255.113 399.606C255.045 399.23 255.235 398.861 255.575 398.685C255.694 398.624 255.814 398.558 255.932 398.489C256.044 398.423 256.154 398.354 256.261 398.283L257.221 399.228C257.559 399.56 258.099 399.555 258.43 399.219L259.447 398.185C259.778 397.85 259.774 397.308 259.438 396.978L258.948 396.495C258.676 396.227 258.619 395.817 258.796 395.481L258.869 395.336C259.039 394.995 259.405 394.8 259.779 394.863L260.459 394.977C260.924 395.056 261.366 394.742 261.443 394.276L261.684 392.846C261.762 392.381 261.448 391.939 260.982 391.862L260.305 391.748C259.933 391.685 259.649 391.385 259.602 391.012C259.566 390.735 259.515 390.46 259.449 390.184C259.359 389.818 259.519 389.438 259.844 389.247L260.437 388.899C260.842 388.66 260.979 388.136 260.74 387.729L260.006 386.479C259.766 386.072 259.242 385.937 258.836 386.176L258.244 386.524C257.916 386.716 257.503 386.664 257.225 386.405L257.104 386.297C256.819 386.045 256.726 385.641 256.883 385.295L257.167 384.671C257.364 384.243 257.174 383.736 256.745 383.54L255.427 382.937C254.997 382.741 254.49 382.93 254.294 383.36L254.009 383.985C253.85 384.332 253.483 384.525 253.106 384.474L252.947 384.454C252.568 384.412 252.259 384.134 252.19 383.762L252.065 383.083C251.98 382.62 251.535 382.313 251.07 382.398L249.644 382.661C249.18 382.747 248.873 383.194 248.959 383.658L249.083 384.332C249.154 384.708 248.961 385.078 248.623 385.252C248.502 385.314 248.384 385.379 248.265 385.449C248.154 385.514 248.042 385.583 247.934 385.654L246.975 384.71C246.64 384.378 246.098 384.383 245.767 384.72L244.75 385.752C244.419 386.089 244.423 386.63 244.759 386.961L245.249 387.443C245.521 387.71 245.576 388.12 245.401 388.458L245.328 388.6C245.158 388.943 244.793 389.139 244.416 389.076L243.739 388.96C243.273 388.883 242.832 389.196 242.754 389.662L242.513 391.092C242.434 391.557 242.748 391.997 243.214 392.076L243.892 392.191C244.263 392.253 244.548 392.551 244.596 392.927C244.629 393.202 244.681 393.48 244.749 393.753C244.837 394.118 244.679 394.499 244.353 394.69L243.761 395.038C243.353 395.278 243.217 395.802 243.457 396.209L244.191 397.458C244.43 397.865 244.954 398.001 245.362 397.761L245.952 397.415C246.281 397.221 246.693 397.273 246.973 397.532L247.093 397.641C247.379 397.892 247.472 398.296 247.312 398.642L247.029 399.265C246.832 399.695 247.022 400.202 247.451 400.398L248.77 401.001C249.199 401.197 249.707 401.007 249.903 400.579L250.189 399.952C250.347 399.607 250.715 399.412 251.091 399.463L251.251 399.483C251.629 399.526 251.937 399.803 252.007 400.177L252.131 400.853C252.217 401.318 252.663 401.624 253.128 401.539L254.552 401.275C255.016 401.191 255.324 400.746 255.238 400.281Z" fill="#08EEFE"/>
<path d="M360.77 516.436C359.816 514.814 360.358 512.728 361.979 511.775C363.6 510.822 365.687 511.363 366.641 512.984C367.594 514.605 367.051 516.692 365.431 517.645C363.809 518.598 361.723 518.057 360.77 516.436ZM365.647 519.853L365.57 519.436C365.528 519.202 365.646 518.975 365.856 518.866L366.077 518.745L366.281 518.617L366.875 519.202C367.084 519.407 367.418 519.404 367.623 519.196L368.252 518.556C368.458 518.349 368.455 518.014 368.246 517.808L367.944 517.51C367.776 517.346 367.741 517.091 367.85 516.883L367.895 516.793C368 516.583 368.226 516.462 368.459 516.5L368.878 516.571C369.166 516.619 369.44 516.426 369.488 516.138L369.637 515.252C369.685 514.964 369.49 514.692 369.202 514.643L368.783 514.573C368.553 514.535 368.378 514.35 368.348 514.117C368.327 513.945 368.294 513.776 368.254 513.606C368.198 513.379 368.298 513.144 368.497 513.027L368.865 512.811C369.117 512.663 369.2 512.338 369.052 512.087L368.597 511.313C368.449 511.061 368.125 510.976 367.874 511.124L367.507 511.34C367.305 511.459 367.05 511.428 366.877 511.266L366.803 511.2C366.626 511.044 366.567 510.794 366.666 510.58L366.841 510.194C366.963 509.929 366.846 509.614 366.581 509.493L365.765 509.121C365.499 509 365.185 509.117 365.065 509.383L364.886 509.769C364.789 509.984 364.562 510.103 364.329 510.072L364.23 510.059C363.995 510.033 363.804 509.862 363.761 509.631L363.684 509.212C363.632 508.924 363.355 508.734 363.069 508.787L362.186 508.951C361.899 509.004 361.709 509.278 361.762 509.566L361.839 509.984C361.883 510.215 361.764 510.445 361.554 510.554L361.333 510.675L361.129 510.802L360.534 510.218C360.326 510.012 359.99 510.015 359.787 510.224L359.158 510.863C358.953 511.07 358.955 511.406 359.162 511.611L359.466 511.91C359.634 512.076 359.669 512.327 359.56 512.537L359.515 512.625C359.41 512.837 359.183 512.958 358.951 512.919L358.532 512.849C358.244 512.8 357.971 512.994 357.922 513.282L357.773 514.167C357.725 514.454 357.919 514.728 358.207 514.777L358.626 514.847C358.856 514.886 359.033 515.071 359.062 515.303C359.084 515.474 359.115 515.644 359.156 515.814C359.212 516.041 359.113 516.275 358.912 516.393L358.545 516.609C358.293 516.757 358.209 517.082 358.357 517.333L358.812 518.107C358.96 518.359 359.285 518.443 359.536 518.295L359.902 518.08C360.105 517.961 360.359 517.992 360.534 518.153L360.607 518.219C360.784 518.375 360.841 518.626 360.744 518.839L360.567 519.225C360.445 519.491 360.563 519.804 360.828 519.927L361.646 520.3C361.91 520.42 362.225 520.303 362.345 520.037L362.524 519.651C362.62 519.436 362.848 519.316 363.081 519.348L363.182 519.36C363.414 519.387 363.606 519.558 363.648 519.79L363.725 520.208C363.778 520.496 364.054 520.686 364.341 520.633L365.223 520.469C365.511 520.417 365.7 520.14 365.647 519.853Z" fill="#08EEFE"/>
<path d="M678.21 384.065C677.257 382.444 677.798 380.357 679.42 379.403C681.04 378.451 683.127 378.993 684.08 380.614C685.033 382.236 684.491 384.321 682.871 385.273C681.249 386.227 679.163 385.687 678.21 384.065ZM683.087 387.483L683.011 387.064C682.968 386.833 683.085 386.604 683.296 386.497L683.517 386.373L683.722 386.247L684.316 386.832C684.523 387.037 684.859 387.034 685.064 386.825L685.693 386.185C685.897 385.978 685.894 385.644 685.687 385.438L685.383 385.14C685.217 384.975 685.18 384.721 685.289 384.512L685.334 384.424C685.439 384.212 685.666 384.091 685.9 384.13L686.319 384.202C686.607 384.249 686.88 384.055 686.928 383.767L687.077 382.883C687.125 382.594 686.931 382.322 686.644 382.273L686.223 382.201C685.993 382.163 685.818 381.978 685.787 381.747C685.767 381.576 685.734 381.404 685.693 381.235C685.638 381.009 685.737 380.773 685.938 380.655L686.304 380.44C686.557 380.291 686.64 379.967 686.493 379.717L686.038 378.943C685.89 378.691 685.566 378.606 685.313 378.755L684.948 378.97C684.744 379.089 684.49 379.057 684.317 378.897L684.242 378.83C684.066 378.673 684.008 378.423 684.107 378.21L684.282 377.824C684.404 377.557 684.286 377.244 684.021 377.122L683.204 376.751C682.939 376.629 682.624 376.746 682.504 377.012L682.328 377.4C682.229 377.613 682.002 377.732 681.769 377.701L681.669 377.69C681.436 377.663 681.245 377.491 681.202 377.26L681.124 376.841C681.071 376.553 680.796 376.364 680.508 376.417L679.626 376.58C679.339 376.633 679.149 376.909 679.203 377.195L679.279 377.613C679.322 377.846 679.204 378.074 678.994 378.183L678.774 378.305L678.568 378.431L677.974 377.847C677.767 377.642 677.431 377.645 677.226 377.853L676.597 378.493C676.392 378.699 676.395 379.035 676.603 379.24L676.907 379.539C677.074 379.704 677.108 379.958 677 380.167L676.954 380.256C676.851 380.467 676.624 380.588 676.391 380.548L675.971 380.478C675.683 380.429 675.41 380.624 675.362 380.912L675.213 381.796C675.165 382.084 675.359 382.357 675.647 382.405L676.066 382.476C676.297 382.515 676.472 382.7 676.503 382.931C676.523 383.103 676.555 383.273 676.596 383.444C676.651 383.67 676.553 383.906 676.351 384.024L675.985 384.239C675.733 384.387 675.65 384.712 675.798 384.963L676.253 385.737C676.4 385.987 676.724 386.072 676.975 385.924L677.342 385.709C677.544 385.59 677.8 385.622 677.973 385.782L678.047 385.85C678.223 386.006 678.282 386.256 678.184 386.47L678.008 386.855C677.887 387.121 678.004 387.434 678.27 387.556L679.085 387.929C679.351 388.05 679.664 387.932 679.786 387.667L679.963 387.28C680.06 387.065 680.288 386.947 680.522 386.976L680.621 386.989C680.855 387.017 681.045 387.187 681.088 387.418L681.166 387.838C681.218 388.124 681.494 388.315 681.782 388.262L682.663 388.099C682.951 388.046 683.141 387.77 683.087 387.483Z" fill="#08EEFE"/>
<path d="M422.73 526.498L563.644 521.392L601.215 473.757L787.925 472.684L787.895 467.35L598.618 468.438L560.985 516.151L422.537 521.169L422.73 526.498Z" fill="#08EEFE"/>
<path d="M529.013 389.83L529.588 389.492L472.966 293.182L360.864 294.067L305.578 391.592L362.395 488.234L474.498 487.35L529.783 389.823L529.588 389.492L529.013 389.83L528.433 389.501L473.717 486.023L363.154 486.894L307.118 391.581L361.644 295.394L472.207 294.522L528.439 390.168L529.013 389.83L528.433 389.501L529.013 389.83Z" fill="#08EEFE"/>
<path d="M516.735 389.926L519.034 388.574L468.05 301.855L365.917 302.661L315.547 391.514L367.311 479.561L469.445 478.755L519.814 389.902L519.034 388.574L516.735 389.926L514.415 388.611L466.324 473.446L370.348 474.204L321.705 391.465L369.037 307.969L465.013 307.212L514.436 391.277L516.735 389.926L514.415 388.611L516.735 389.926Z" fill="#08EEFE"/>
<path d="M317.949 326.505L275.804 325.476L261.662 349.31L262.809 349.991L276.552 326.829L317.918 327.838L317.949 326.505Z" fill="#08EEFE"/>
<path d="M334.979 319.314L265.42 317.616L252.674 339.296L253.823 339.971L266.171 318.969L334.948 320.647L334.979 319.314Z" fill="#08EEFE"/>
<path d="M319.543 329.909C318.031 330.798 316.085 330.292 315.197 328.781C314.307 327.268 314.812 325.322 316.324 324.434C317.836 323.544 319.782 324.049 320.671 325.562C321.56 327.073 321.056 329.02 319.543 329.909Z" fill="#08EEFE"/>
<path d="M336.574 322.718C335.062 323.607 333.115 323.101 332.227 321.59C331.338 320.078 331.842 318.131 333.355 317.242C334.866 316.354 336.813 316.86 337.701 318.371C338.59 319.883 338.086 321.829 336.574 322.718Z" fill="#08EEFE"/>
<path d="M304.378 361.081C302.867 361.969 300.92 361.465 300.031 359.952C299.142 358.441 299.648 356.495 301.16 355.606C302.672 354.717 304.619 355.221 305.508 356.732C306.397 358.245 305.891 360.191 304.378 361.081Z" fill="#08EEFE"/>
<path d="M177.232 362.084C175.72 362.973 173.773 362.467 172.884 360.956C171.995 359.443 172.501 357.497 174.013 356.608C175.525 355.719 177.47 356.224 178.36 357.737C179.248 359.248 178.744 361.195 177.232 362.084Z" fill="#08EEFE"/>
<path d="M130.985 371.051C129.473 371.941 127.527 371.436 126.638 369.923C125.749 368.412 126.253 366.465 127.766 365.576C129.277 364.687 131.224 365.193 132.112 366.705C133.002 368.217 132.496 370.163 130.985 371.051Z" fill="#08EEFE"/>
<path d="M129.381 368.98L319.636 367.48L319.625 366.147L129.37 367.647" fill="#08EEFE"/>
<path d="M175.627 360.013L302.774 359.009L302.763 357.676L175.617 358.679" fill="#08EEFE"/>
<path d="M71.9863 351.817L262.241 350.317L262.231 348.984L71.9758 350.484" fill="#08EEFE"/>
<path d="M62.9985 341.8L253.254 340.3L253.244 338.967L62.988 340.466" fill="#08EEFE"/>
<path d="M319.227 456.212L277.87 457.493L263.976 434.422L262.834 435.111L277.131 458.85L319.269 457.546L319.227 456.212Z" fill="#08EEFE"/>
<path d="M336.306 463.292L267.542 465.421L255.055 444.5L253.911 445.184L266.798 466.779L336.347 464.624L336.306 463.292Z" fill="#08EEFE"/>
<path d="M320.841 454.13C319.323 453.252 317.38 453.769 316.5 455.288C315.621 456.806 316.14 458.748 317.657 459.627C319.177 460.506 321.12 459.989 321.997 458.471C322.877 456.953 322.359 455.01 320.841 454.13Z" fill="#08EEFE"/>
<path d="M337.918 461.211C336.401 460.33 334.457 460.849 333.578 462.367C332.698 463.885 333.216 465.828 334.734 466.706C336.252 467.586 338.195 467.069 339.075 465.55C339.954 464.032 339.436 462.089 337.918 461.211Z" fill="#08EEFE"/>
<path d="M305.473 423.059C303.954 422.18 302.011 422.699 301.131 424.215C300.253 425.734 300.771 427.676 302.289 428.555C303.808 429.435 305.75 428.916 306.629 427.4C307.508 425.881 306.99 423.938 305.473 423.059Z" fill="#08EEFE"/>
<path d="M178.321 422.891C176.803 422.012 174.859 422.53 173.982 424.048C173.102 425.565 173.619 427.508 175.138 428.387C176.656 429.266 178.599 428.749 179.479 427.231C180.358 425.713 179.839 423.771 178.321 422.891Z" fill="#08EEFE"/>
<path d="M130.423 417.642L320.684 417.894L320.686 416.561L130.424 416.308" fill="#08EEFE"/>
<path d="M176.729 426.306L303.879 426.474L303.881 425.142L176.731 424.972" fill="#08EEFE"/>
<path d="M73.1424 435.182L263.403 435.433L263.406 434.1L73.1447 433.848" fill="#08EEFE"/>
<path d="M64.2207 445.257L254.482 445.508L254.484 444.175L64.223 443.924" fill="#08EEFE"/>
<path d="M517.403 454.989L559.549 456.017L573.691 432.183L572.544 431.503L558.801 454.666L517.435 453.656L517.403 454.989Z" fill="#08EEFE"/>
<path d="M500.372 462.181L569.933 463.878L582.679 442.199L581.529 441.524L569.181 462.527L500.405 460.848L500.372 462.181Z" fill="#08EEFE"/>
<path d="M515.809 451.585C517.322 450.695 519.268 451.201 520.156 452.713C521.046 454.226 520.542 456.172 519.029 457.062C517.517 457.95 515.57 457.445 514.681 455.932C513.792 454.421 514.297 452.473 515.809 451.585Z" fill="#08EEFE"/>
<path d="M498.78 458.777C500.292 457.888 502.238 458.393 503.127 459.905C504.016 461.417 503.512 463.364 501.999 464.253C500.486 465.142 498.54 464.636 497.651 463.125C496.762 461.612 497.267 459.666 498.78 458.777Z" fill="#08EEFE"/>
<path d="M530.974 420.412C532.486 419.524 534.433 420.029 535.322 421.54C536.212 423.054 535.706 425 534.194 425.889C532.681 426.778 530.735 426.274 529.845 424.76C528.956 423.249 529.462 421.301 530.974 420.412Z" fill="#08EEFE"/>
<path d="M658.121 419.41C659.633 418.521 661.58 419.026 662.469 420.538C663.358 422.051 662.853 423.998 661.341 424.887C659.829 425.776 657.881 425.271 656.992 423.758C656.103 422.246 656.609 420.299 658.121 419.41Z" fill="#08EEFE"/>
<path d="M704.369 410.441C705.881 409.553 707.828 410.058 708.717 411.57C709.606 413.082 709.1 415.029 707.589 415.917C706.076 416.806 704.13 416.302 703.241 414.789C702.352 413.277 702.857 411.331 704.369 410.441Z" fill="#08EEFE"/>
<path d="M705.973 412.513L515.718 414.015L515.729 415.348L705.984 413.846" fill="#08EEFE"/>
<path d="M659.726 421.481L532.579 422.483L532.589 423.817L659.736 422.814" fill="#08EEFE"/>
<path d="M763.367 429.676L573.112 431.177L573.123 432.51L763.378 431.01" fill="#08EEFE"/>
<path d="M772.354 439.694L582.099 441.194L582.11 442.528L772.365 441.027" fill="#08EEFE"/>
<path d="M516.125 325.28L557.484 324L571.377 347.071L572.52 346.384L558.222 322.643L516.084 323.948L516.125 325.28Z" fill="#08EEFE"/>
<path d="M499.049 318.202L567.811 316.072L580.297 336.992L581.442 336.31L568.553 314.715L499.007 316.871L499.049 318.202Z" fill="#08EEFE"/>
<path d="M514.513 327.363C516.03 328.242 517.973 327.725 518.852 326.207C519.73 324.689 519.213 322.745 517.695 321.867C516.177 320.987 514.235 321.505 513.355 323.023C512.477 324.542 512.994 326.485 514.513 327.363Z" fill="#08EEFE"/>
<path d="M497.436 320.284C498.953 321.163 500.896 320.646 501.775 319.127C502.655 317.609 502.137 315.666 500.618 314.786C499.101 313.909 497.158 314.426 496.279 315.944C495.399 317.462 495.917 319.406 497.436 320.284Z" fill="#08EEFE"/>
<path d="M418.012 284.427C419.53 285.307 421.474 284.788 422.352 283.269C423.232 281.753 422.714 279.81 421.196 278.93C419.679 278.051 417.734 278.569 416.856 280.086C415.976 281.605 416.495 283.548 418.012 284.427Z" fill="#08EEFE"/>
<path d="M529.881 358.436C531.4 359.315 533.342 358.796 534.221 357.279C535.099 355.76 534.582 353.817 533.064 352.938C531.547 352.06 529.604 352.577 528.724 354.095C527.846 355.614 528.363 357.557 529.881 358.436Z" fill="#08EEFE"/>
<path d="M657.033 358.604C658.55 359.482 660.493 358.964 661.371 357.447C662.251 355.928 661.733 353.985 660.215 353.106C658.697 352.228 656.754 352.745 655.875 354.262C654.996 355.782 655.515 357.724 657.033 358.604Z" fill="#08EEFE"/>
<path d="M703.337 367.269C704.856 368.147 706.799 367.63 707.677 366.111C708.557 364.594 708.037 362.65 706.521 361.772C705.003 360.892 703.06 361.409 702.18 362.929C701.301 364.446 701.819 366.389 703.337 367.269Z" fill="#08EEFE"/>
<path d="M704.93 363.853L514.67 363.601L514.668 364.934L704.928 365.186" fill="#08EEFE"/>
<path d="M658.626 355.188L531.474 355.021L531.472 356.354L658.623 356.521" fill="#08EEFE"/>
<path d="M762.21 346.314L571.949 346.061L571.948 347.395L762.208 347.647" fill="#08EEFE"/>
<path d="M771.132 336.237L580.87 335.984L580.869 337.318L771.13 337.57" fill="#08EEFE"/>
<path d="M422.201 504.513C423.72 505.391 425.663 504.874 426.541 503.355C427.421 501.838 426.903 499.896 425.385 499.016C423.866 498.138 421.923 498.655 421.045 500.172C420.165 501.69 420.683 503.633 422.201 504.513Z" fill="#08EEFE"/>
<path d="M463.007 500.752L377.19 501.428L377.2 502.761L463.017 502.085" fill="#08EEFE"/>
<path d="M408.806 258.605L267.892 263.71L230.321 311.345L43.6115 312.417L43.6428 317.751L232.919 316.663L270.551 268.95L408.999 263.935L408.806 258.605Z" fill="#08EEFE"/>
<path d="M418.842 400.621L418.74 400.741C418.24 401.315 415.959 403.653 412.41 403.655C410.124 403.658 407.272 402.716 403.935 399.652L403.627 399.576C403.627 399.576 403.56 399.592 403.427 399.62C403.027 399.704 402.057 399.875 400.833 399.877C399.338 399.882 397.468 399.632 395.78 398.69C394.091 397.749 392.564 396.129 391.713 393.3C391.66 393.125 391.476 393.025 391.3 393.076L391.18 393.106C390.935 393.164 390.338 393.286 389.631 393.286C388.962 393.288 388.198 393.182 387.53 392.841C386.863 392.497 386.282 391.932 385.928 390.944L385.725 390.74L385.438 390.772L385.333 390.833C384.825 391.122 382.549 392.307 379.82 392.31C377.153 392.306 374.06 391.242 371.562 387.065L371.358 386.912L371.298 386.895C370.977 386.804 369.44 386.308 367.858 385.002C366.277 383.693 364.649 381.587 364.102 378.214C363.975 377.429 363.917 376.678 363.916 375.966C363.91 373.048 364.837 370.74 365.766 369.158C366.231 368.368 366.696 367.759 367.043 367.352C367.216 367.147 367.36 366.994 367.46 366.891L367.573 366.777L367.61 366.743C367.707 366.653 367.743 366.514 367.7 366.389L367.665 366.272C367.597 366.028 367.455 365.427 367.454 364.678C367.452 363.895 367.601 362.959 368.127 362.075C368.653 361.191 369.554 360.345 371.125 359.743C371.249 359.695 371.333 359.578 371.339 359.446C371.339 359.446 371.344 359.308 371.376 359.047C371.485 358.133 371.91 355.807 373.459 353.652C375.012 351.498 377.659 349.491 382.344 349.155C382.48 349.146 382.597 349.052 382.638 348.921L382.68 348.796C382.907 348.154 384.063 345.176 386.867 342.37C389.673 339.565 394.109 336.92 400.981 336.904C402.552 336.9 404.251 337.036 406.087 337.339L406.373 337.251L406.539 337.103C407.338 336.412 410.918 333.606 415.91 333.6C418.606 333.596 421.723 334.393 425.089 336.792L425.425 336.822L425.473 336.8C425.714 336.696 426.833 336.253 428.215 336.252C429.971 336.26 432.117 336.904 433.654 339.885C433.722 340.018 433.869 340.09 434.016 340.06L434.152 340.037C434.43 339.994 435.121 339.903 436.083 339.901C439.367 339.902 445.731 340.892 449.824 348.204C449.89 348.321 450.019 348.387 450.153 348.372L450.285 348.363C450.375 348.357 450.511 348.352 450.685 348.351C451.574 348.348 453.449 348.491 455.38 349.519C457.312 350.548 459.316 352.447 460.508 356.038L460.7 356.242L460.758 356.268C461.075 356.409 462.573 357.132 463.98 358.628C465.387 360.128 466.708 362.38 466.716 365.648L466.715 365.827L466.858 366.104L466.886 366.124C467.2 366.359 469.943 368.521 469.951 372.924C469.953 373.971 469.801 375.147 469.424 376.461L469.453 376.718L469.506 376.814C469.749 377.28 470.752 379.382 470.755 381.952C470.757 383.109 470.56 384.361 470.006 385.615C469 387.889 468.028 389.249 467.321 390.037C466.965 390.43 466.677 390.681 466.482 390.831L466.261 390.985L466.211 391.016L466.201 391.021L466.231 391.078L466.203 391.021L466.201 391.021L466.231 391.078L466.203 391.021C466.088 391.077 466.016 391.196 466.019 391.324L466.019 391.396C466.02 391.899 465.981 394.971 464.975 398.501C463.971 402.034 462.004 406.004 458.19 408.375C455.749 409.894 452.738 410.442 449.712 410.448C446.213 410.455 442.704 409.74 440.075 409.021C438.761 408.661 437.667 408.302 436.903 408.032C436.137 407.763 435.709 407.585 435.707 407.585C435.536 407.514 435.342 407.596 435.272 407.766C435.201 407.936 435.283 408.131 435.454 408.201C435.474 408.207 442.536 411.125 449.713 411.115C452.816 411.107 455.951 410.553 458.543 408.941C462.558 406.44 464.586 402.302 465.617 398.684C466.648 395.061 466.687 391.937 466.686 391.395L466.686 391.313L466.353 391.318L466.503 391.616C466.579 391.579 468.558 390.542 470.616 385.884C471.213 384.533 471.424 383.185 471.422 381.95C471.412 378.818 470.047 376.416 470.034 376.389L469.744 376.554L470.064 376.645C470.459 375.275 470.62 374.035 470.618 372.923C470.603 367.904 467.277 365.581 467.239 365.556L467.048 365.83L467.382 365.833L467.383 365.647C467.378 361.963 465.766 359.439 464.167 357.865C462.565 356.287 460.977 355.636 460.952 355.625L460.826 355.933L461.141 355.829C459.904 352.087 457.763 350.026 455.693 348.93C453.624 347.832 451.643 347.683 450.683 347.685C450.309 347.685 450.089 347.709 450.078 347.71L450.115 348.042L450.406 347.879C446.172 340.301 439.485 339.22 436.082 339.235C434.745 339.237 433.902 339.403 433.886 339.407L433.951 339.734L434.248 339.581C432.624 336.382 430.139 335.568 428.213 335.585C426.475 335.59 425.166 336.208 425.141 336.218L425.283 336.519L425.477 336.248C422.009 333.775 418.738 332.926 415.909 332.933C409.91 332.952 405.941 336.745 405.912 336.77L406.143 337.01L406.197 336.681C404.327 336.371 402.59 336.234 400.98 336.237C393.462 336.248 388.692 339.367 385.837 342.483C382.979 345.596 382.012 348.694 382.001 348.722L382.32 348.822L382.297 348.49C376.74 348.875 373.783 351.617 372.283 354.25C370.777 356.881 370.675 359.388 370.673 359.418L371.006 359.432L370.887 359.12C369.2 359.763 368.157 360.718 367.553 361.733C366.95 362.751 366.785 363.814 366.787 364.679C366.79 365.788 367.062 366.582 367.07 366.605L367.384 366.498L367.16 366.252C367.131 366.281 363.242 369.836 363.249 375.968C363.251 376.714 363.311 377.501 363.443 378.321C364.051 382.099 365.989 384.426 367.769 385.782C369.549 387.141 371.166 387.551 371.194 387.558L371.276 387.235L370.99 387.406C373.573 391.766 376.969 392.993 379.821 392.976C383.158 392.966 385.761 391.352 385.789 391.339L385.613 391.055L385.299 391.167C385.701 392.307 386.427 393.028 387.227 393.435C388.028 393.842 388.895 393.954 389.633 393.952C390.674 393.95 391.467 393.721 391.485 393.717L391.393 393.395L391.073 393.492C391.963 396.468 393.624 398.259 395.455 399.274C397.286 400.291 399.266 400.547 400.834 400.544C402.549 400.541 403.775 400.225 403.792 400.221L403.71 399.898L403.484 400.144C406.905 403.29 409.934 404.328 412.411 404.322C416.822 404.303 419.342 401.058 419.367 401.03C419.48 400.885 419.454 400.675 419.31 400.562C419.165 400.449 418.955 400.475 418.842 400.621Z" fill="#08EEFE"/>
<path d="M426.043 380.68L408.979 380.715L408.944 363.653L426.008 363.618L426.043 380.68Z" fill="#08EEFE"/>
<path d="M410.985 382.243L409.978 382.245L409.937 362.12L410.943 362.118L410.985 382.243Z" fill="#08EEFE"/>
<path d="M413.271 382.238L412.265 382.24L412.223 362.115L413.23 362.113L413.271 382.238Z" fill="#08EEFE"/>
<path d="M415.559 382.234L414.553 382.236L414.512 362.111L415.518 362.108L415.559 382.234Z" fill="#08EEFE"/>
<path d="M417.846 382.229L416.839 382.231L416.798 362.106L417.805 362.104L417.846 382.229Z" fill="#08EEFE"/>
<path d="M420.131 382.225L419.126 382.227L419.085 362.101L420.09 362.099L420.131 382.225Z" fill="#08EEFE"/>
<path d="M422.42 382.22L421.413 382.222L421.372 362.097L422.378 362.095L422.42 382.22Z" fill="#08EEFE"/>
<path d="M424.706 382.215L423.699 382.217L423.658 362.092L424.665 362.09L424.706 382.215Z" fill="#08EEFE"/>
<path d="M427.397 378.504L427.399 379.511L407.274 379.552L407.272 378.546L427.397 378.504Z" fill="#08EEFE"/>
<path d="M427.393 376.216L427.395 377.223L407.269 377.264L407.267 376.258L427.393 376.216Z" fill="#08EEFE"/>
<path d="M427.388 373.931L427.39 374.936L407.265 374.978L407.263 373.972L427.388 373.931Z" fill="#08EEFE"/>
<path d="M427.383 371.643L427.385 372.65L407.26 372.691L407.258 371.684L427.383 371.643Z" fill="#08EEFE"/>
<path d="M427.378 369.356L427.38 370.363L407.255 370.404L407.253 369.397L427.378 369.356Z" fill="#08EEFE"/>
<path d="M427.374 367.07L427.376 368.075L407.25 368.116L407.248 367.111L427.374 367.07Z" fill="#08EEFE"/>
<path d="M427.369 364.783L427.371 365.788L407.246 365.83L407.244 364.824L427.369 364.783Z" fill="#08EEFE"/>
<path d="M382.092 349.065L399.664 365.585L399.894 365.675L409.234 365.656C409.418 365.656 409.567 365.506 409.566 365.322C409.566 365.138 409.416 364.989 409.232 364.99L400.024 365.008L382.548 348.579C382.414 348.454 382.204 348.459 382.077 348.594C381.951 348.728 381.958 348.939 382.092 349.065Z" fill="#08EEFE"/>
<path d="M378.037 349.891L396.329 367.873L396.563 367.969L409.238 367.943C409.422 367.943 409.571 367.793 409.571 367.609C409.57 367.425 409.421 367.276 409.237 367.276L396.699 367.302L378.504 349.415C378.373 349.286 378.163 349.288 378.033 349.419C377.904 349.551 377.906 349.762 378.037 349.891Z" fill="#08EEFE"/>
<path d="M426.026 372.483L436.846 372.461L466.171 391.597C466.324 391.698 466.531 391.655 466.632 391.5C466.733 391.347 466.688 391.14 466.535 391.039L437.126 371.849L436.943 371.794L426.025 371.817C425.841 371.817 425.692 371.967 425.692 372.151C425.692 372.335 425.842 372.484 426.026 372.483Z" fill="#08EEFE"/>
<path d="M370.763 359.659L384.845 374.747L385.09 374.852L408.967 374.803C409.151 374.803 409.3 374.655 409.3 374.469C409.299 374.285 409.15 374.138 408.966 374.138L385.234 374.185L371.25 359.204C371.124 359.07 370.913 359.062 370.779 359.188C370.643 359.314 370.637 359.524 370.763 359.659Z" fill="#08EEFE"/>
<path d="M367.14 366.722L376.633 377.049L376.88 377.157L408.972 377.091C409.156 377.091 409.305 376.941 409.304 376.757C409.304 376.573 409.154 376.424 408.97 376.425L377.025 376.49L367.631 366.272C367.505 366.136 367.294 366.127 367.159 366.251C367.024 366.376 367.015 366.588 367.14 366.722Z" fill="#08EEFE"/>
<path d="M378.869 359.72L388.153 359.701C388.337 359.7 388.486 359.551 388.486 359.367C388.485 359.183 388.336 359.033 388.152 359.034L378.868 359.053C378.684 359.053 378.535 359.203 378.535 359.387C378.536 359.571 378.685 359.72 378.869 359.72Z" fill="#08EEFE"/>
<path d="M385.085 365.358L384.68 374.505C384.671 374.689 384.814 374.845 384.998 374.852C385.182 374.861 385.337 374.718 385.345 374.534L385.75 365.387C385.759 365.203 385.616 365.047 385.432 365.038C385.248 365.031 385.093 365.174 385.085 365.358Z" fill="#08EEFE"/>
<path d="M378.635 359.416L378.302 359.417C378.303 359.878 377.93 360.252 377.469 360.254C377.006 360.254 376.632 359.881 376.631 359.42C376.63 358.959 377.003 358.585 377.466 358.582C377.927 358.583 378.301 358.955 378.302 359.417L378.635 359.416L378.969 359.415C378.967 358.586 378.294 357.914 377.464 357.916C376.634 357.917 375.963 358.592 375.965 359.421C375.966 360.252 376.64 360.923 377.47 360.921C378.3 360.919 378.97 360.246 378.969 359.415L378.635 359.416Z" fill="#08EEFE"/>
<path d="M401.138 352.589L410.42 352.57C410.604 352.569 410.753 352.42 410.753 352.236C410.752 352.052 410.603 351.903 410.419 351.903L401.136 351.922C400.952 351.922 400.803 352.072 400.804 352.256C400.804 352.44 400.954 352.589 401.138 352.589Z" fill="#08EEFE"/>
<path d="M400.904 352.285L400.57 352.286C400.571 352.747 400.199 353.121 399.736 353.123C399.275 353.123 398.9 352.751 398.898 352.289C398.899 351.828 399.271 351.454 399.733 351.451C400.195 351.452 400.569 351.824 400.57 352.286L400.904 352.285L401.237 352.284C401.235 351.455 400.562 350.783 399.731 350.785C398.902 350.787 398.231 351.461 398.232 352.291C398.235 353.121 398.908 353.792 399.737 353.79C400.568 353.788 401.239 353.115 401.237 352.284L400.904 352.285Z" fill="#08EEFE"/>
<path d="M433.438 358.186L424.154 358.205C423.97 358.206 423.821 358.355 423.822 358.539C423.822 358.723 423.972 358.872 424.156 358.872L433.44 358.853C433.624 358.853 433.773 358.703 433.772 358.519C433.772 358.335 433.622 358.186 433.438 358.186Z" fill="#08EEFE"/>
<path d="M433.672 358.55L433.339 358.551C433.341 359.38 434.014 360.051 434.843 360.049C435.673 360.047 436.345 359.374 436.343 358.545C436.341 357.714 435.667 357.043 434.837 357.045C434.008 357.047 433.337 357.72 433.339 358.551L433.672 358.55L434.006 358.55C434.005 358.087 434.379 357.713 434.839 357.712C435.3 357.711 435.674 358.083 435.676 358.546C435.676 359.006 435.303 359.38 434.842 359.383C434.382 359.382 434.007 359.01 434.006 358.55L433.672 358.55Z" fill="#08EEFE"/>
<path d="M444.184 387.529L434.9 387.548C434.716 387.548 434.567 387.698 434.567 387.882C434.567 388.066 434.717 388.215 434.901 388.214L444.185 388.195C444.369 388.195 444.518 388.045 444.518 387.861C444.517 387.677 444.368 387.528 444.184 387.529Z" fill="#08EEFE"/>
<path d="M444.416 387.892L444.083 387.893C444.086 388.722 444.76 389.393 445.589 389.392C446.42 389.389 447.09 388.716 447.088 387.887C447.087 387.056 446.413 386.385 445.583 386.387C444.753 386.389 444.083 387.062 444.083 387.893L444.416 387.892L444.75 387.891C444.75 387.429 445.123 387.055 445.584 387.054C446.047 387.053 446.421 387.425 446.422 387.888C446.423 388.349 446.05 388.723 445.587 388.726C445.126 388.725 444.752 388.353 444.75 387.891L444.416 387.892Z" fill="#08EEFE"/>
<path d="M426.057 387.546L425.724 387.547C425.725 388.376 426.399 389.046 427.229 389.045C428.059 389.043 428.729 388.37 428.728 387.54C428.726 386.71 428.053 386.039 427.223 386.041C426.393 386.042 425.722 386.716 425.724 387.547L426.057 387.546L426.39 387.545C426.391 387.082 426.763 386.708 427.225 386.707C427.685 386.707 428.059 387.079 428.061 387.542C428.061 388.003 427.688 388.377 427.228 388.378C426.767 388.379 426.393 388.006 426.39 387.545L426.057 387.546Z" fill="#08EEFE"/>
<path d="M450.418 396.333L435.556 396.364C435.372 396.364 435.223 396.514 435.224 396.698C435.224 396.882 435.374 397.031 435.558 397.03L450.419 397C450.603 397 450.752 396.85 450.752 396.666C450.751 396.482 450.602 396.333 450.418 396.333Z" fill="#08EEFE"/>
<path d="M450.365 396.715L450.032 396.715C450.034 397.63 450.777 398.371 451.691 398.369C452.606 398.368 453.346 397.623 453.344 396.709C453.342 395.794 452.599 395.054 451.684 395.055C450.77 395.058 450.03 395.801 450.032 396.715L450.365 396.715L450.698 396.714C450.697 396.167 451.139 395.724 451.686 395.721C452.232 395.722 452.675 396.163 452.677 396.71C452.677 397.257 452.235 397.7 451.69 397.703C451.143 397.703 450.7 397.261 450.698 396.714L450.365 396.715Z" fill="#08EEFE"/>
<path d="M440.153 442.24L439.82 442.24C439.821 443.155 440.564 443.894 441.479 443.893C442.395 443.891 443.135 443.148 443.134 442.234C443.132 441.318 442.388 440.577 441.472 440.578C440.558 440.58 439.818 441.324 439.82 442.24L440.153 442.24L440.486 442.239C440.486 441.691 440.928 441.248 441.474 441.245C442.022 441.245 442.465 441.687 442.468 442.235C442.467 442.78 442.026 443.224 441.478 443.226C440.932 443.226 440.489 442.784 440.486 442.239L440.153 442.24Z" fill="#08EEFE"/>
<path d="M433.68 437.738L433.346 437.739C433.348 438.654 434.091 439.394 435.006 439.392C435.922 439.39 436.661 438.647 436.66 437.732C436.658 436.818 435.915 436.078 434.999 436.08C434.084 436.082 433.344 436.824 433.346 437.739L433.68 437.738L434.013 437.738C434.012 437.191 434.454 436.747 435 436.746C435.548 436.745 435.99 437.187 435.993 437.734C435.993 438.279 435.552 438.723 435.004 438.725C434.458 438.725 434.014 438.283 434.013 437.738L433.68 437.738Z" fill="#08EEFE"/>
<path d="M424.559 434.368L424.226 434.368C424.228 435.283 424.971 436.023 425.885 436.021C426.8 436.019 427.54 435.276 427.538 434.361C427.536 433.445 426.793 432.706 425.879 432.707C424.964 432.709 424.224 433.452 424.226 434.368L424.559 434.368L424.893 434.367C424.892 433.819 425.333 433.375 425.88 433.374C426.425 433.373 426.869 433.815 426.871 434.363C426.871 434.908 426.429 435.352 425.884 435.354C425.337 435.354 424.894 434.912 424.893 434.367L424.559 434.368Z" fill="#08EEFE"/>
<path d="M417.065 440.154L416.731 440.154C416.733 441.069 417.476 441.809 418.392 441.807C419.307 441.805 420.046 441.062 420.045 440.148C420.043 439.233 419.3 438.493 418.385 438.495C417.469 438.497 416.729 439.24 416.731 440.154L417.065 440.154L417.398 440.153C417.397 439.606 417.839 439.163 418.387 439.162C418.933 439.16 419.375 439.602 419.378 440.149C419.378 440.696 418.937 441.138 418.391 441.14C417.843 441.14 417.399 440.698 417.398 440.153L417.065 440.154Z" fill="#08EEFE"/>
<path d="M456.579 378.066L456.246 378.067C456.247 378.897 456.922 379.568 457.751 379.566C458.582 379.565 459.253 378.891 459.251 378.061C459.249 377.23 458.576 376.559 457.745 376.561C456.916 376.563 456.244 377.236 456.246 378.067L456.579 378.066L456.912 378.065C456.913 377.604 457.285 377.23 457.747 377.228C458.208 377.228 458.582 377.601 458.584 378.062C458.584 378.523 458.211 378.897 457.75 378.9C457.289 378.899 456.915 378.527 456.912 378.065L456.579 378.066Z" fill="#08EEFE"/>
<path d="M386.584 363.698L386.251 363.699C386.25 364.16 385.878 364.535 385.417 364.537C384.957 364.536 384.581 364.164 384.58 363.703C384.579 363.241 384.953 362.867 385.413 362.865C385.874 362.865 386.249 363.238 386.251 363.699L386.584 363.698L386.917 363.698C386.914 362.868 386.241 362.196 385.412 362.198C384.582 362.201 383.912 362.875 383.913 363.704C383.915 364.533 384.589 365.204 385.418 365.203C386.247 365.202 386.918 364.527 386.917 363.698L386.584 363.698Z" fill="#08EEFE"/>
<path d="M388.209 386.838L387.875 386.838C387.876 387.3 387.502 387.674 387.041 387.676C386.58 387.676 386.206 387.303 386.203 386.842C386.204 386.379 386.576 386.005 387.038 386.004C387.499 386.003 387.874 386.376 387.875 386.838L388.209 386.838L388.542 386.837C388.54 386.006 387.867 385.336 387.036 385.338C386.207 385.339 385.535 386.013 385.537 386.843C385.538 387.673 386.213 388.343 387.042 388.343C387.873 388.34 388.544 387.666 388.542 386.837L388.209 386.838Z" fill="#08EEFE"/>
<path d="M409.26 378.711L399.14 378.732C399.018 378.732 398.906 378.799 398.847 378.907L391.099 393.237C391.012 393.399 391.072 393.601 391.235 393.689C391.396 393.777 391.599 393.716 391.687 393.555L399.34 379.398L409.262 379.377C409.446 379.377 409.595 379.227 409.594 379.043C409.594 378.859 409.444 378.71 409.26 378.711Z" fill="#08EEFE"/>
<path d="M387.989 385.822L392.569 376.945C392.652 376.782 392.588 376.581 392.425 376.496C392.261 376.412 392.06 376.477 391.976 376.639L387.397 385.517C387.313 385.68 387.378 385.881 387.54 385.966C387.705 386.049 387.906 385.985 387.989 385.822Z" fill="#08EEFE"/>
<path d="M374.004 384.548L373.671 384.549C373.67 385.009 373.298 385.384 372.837 385.385C372.375 385.386 372 385.012 371.999 384.552C371.998 384.091 372.372 383.717 372.833 383.715C373.294 383.715 373.668 384.087 373.671 384.549L374.004 384.548L374.337 384.547C374.336 383.718 373.661 383.047 372.832 383.048C372.001 383.051 371.33 383.724 371.332 384.554C371.334 385.383 372.007 386.054 372.838 386.052C373.667 386.05 374.339 385.377 374.337 384.547L374.004 384.548Z" fill="#08EEFE"/>
<path d="M373.817 383.533L377.198 376.976C377.283 376.813 377.218 376.612 377.054 376.527C376.891 376.444 376.69 376.508 376.605 376.671L373.224 383.227C373.14 383.391 373.205 383.593 373.368 383.676C373.532 383.761 373.733 383.697 373.817 383.533Z" fill="#08EEFE"/>
<path d="M410.776 363.649L410.744 347.924L410.721 347.802L406.453 336.888C406.385 336.718 406.193 336.633 406.021 336.7C405.849 336.767 405.764 336.961 405.832 337.131L410.077 347.988L410.109 363.65C410.11 363.834 410.259 363.983 410.443 363.983C410.627 363.983 410.776 363.833 410.776 363.649Z" fill="#08EEFE"/>
<path d="M425.021 336.315L417.008 346.522L416.937 346.728L416.972 363.636C416.972 363.82 417.122 363.969 417.306 363.969C417.49 363.969 417.639 363.819 417.639 363.635L417.604 346.842L425.545 336.725C425.659 336.581 425.634 336.372 425.489 336.258C425.344 336.145 425.134 336.169 425.021 336.315Z" fill="#08EEFE"/>
<path d="M433.683 339.535L423.875 352.873L423.81 353.07L423.832 363.622C423.832 363.806 423.982 363.955 424.166 363.955C424.35 363.955 424.499 363.805 424.499 363.621L424.477 353.178L434.22 339.93C434.329 339.782 434.298 339.574 434.149 339.465C434.001 339.356 433.792 339.387 433.683 339.535Z" fill="#08EEFE"/>
<path d="M449.839 347.856L436.79 367.22L426.016 367.242C425.832 367.242 425.683 367.392 425.683 367.576C425.683 367.76 425.833 367.909 426.017 367.908L436.969 367.886L437.245 367.739L450.391 348.228C450.495 348.074 450.455 347.868 450.302 347.765C450.149 347.662 449.942 347.702 449.839 347.856Z" fill="#08EEFE"/>
<path d="M460.553 355.74L450.816 369.478L426.02 369.528C425.836 369.529 425.687 369.678 425.688 369.862C425.688 370.046 425.838 370.195 426.022 370.195L450.99 370.144L451.26 370.004L461.098 356.126C461.205 355.975 461.168 355.767 461.019 355.661C460.868 355.554 460.66 355.59 460.553 355.74Z" fill="#08EEFE"/>
<path d="M466.857 365.297L458.159 376.96C458.049 377.108 458.08 377.318 458.227 377.427C458.375 377.537 458.583 377.507 458.693 377.359L467.391 365.696C467.501 365.549 467.47 365.34 467.323 365.229C467.175 365.12 466.967 365.15 466.857 365.297Z" fill="#08EEFE"/>
<path d="M462.824 384.304L462.491 384.304C462.492 385.135 463.166 385.806 463.996 385.804C464.826 385.802 465.498 385.129 465.496 384.298C465.494 383.469 464.82 382.798 463.99 382.8C463.16 382.802 462.489 383.475 462.491 384.304L462.824 384.304L463.157 384.303C463.158 383.842 463.53 383.468 463.992 383.467C464.453 383.466 464.827 383.838 464.829 384.3C464.829 384.762 464.456 385.136 463.995 385.137C463.534 385.138 463.16 384.766 463.157 384.303L462.824 384.304Z" fill="#08EEFE"/>
<path d="M469.576 375.931L464.355 382.933C464.245 383.08 464.275 383.289 464.423 383.399C464.57 383.508 464.779 383.479 464.89 383.33L470.11 376.329C470.22 376.182 470.191 375.973 470.042 375.863C469.895 375.753 469.686 375.783 469.576 375.931Z" fill="#08EEFE"/>
<path d="M426.04 379.343L433.171 379.329L435.248 407.918C435.262 408.1 435.421 408.239 435.605 408.225C435.789 408.213 435.926 408.052 435.913 407.868L433.813 378.971C433.801 378.797 433.655 378.661 433.48 378.661L426.039 378.677C425.855 378.677 425.706 378.827 425.706 379.011C425.707 379.195 425.856 379.344 426.04 379.343Z" fill="#08EEFE"/>
<path d="M404.007 400.049L410.194 387.911L425.748 387.88C425.934 387.879 426.081 387.73 426.081 387.546C426.081 387.36 425.932 387.213 425.747 387.213L409.988 387.245C409.863 387.245 409.749 387.315 409.693 387.427L403.413 399.747C403.329 399.911 403.395 400.112 403.559 400.196C403.723 400.278 403.923 400.214 404.007 400.049Z" fill="#08EEFE"/>
<path d="M418.819 394.266L419.96 413.613L416.791 416.509L416.683 416.772L417.796 438.524C417.806 438.708 417.962 438.849 418.146 438.839C418.33 438.83 418.471 438.673 418.461 438.489L417.357 416.896L420.527 413.999L420.635 413.733L419.484 394.227C419.473 394.043 419.315 393.904 419.131 393.915C418.947 393.924 418.808 394.083 418.819 394.266Z" fill="#08EEFE"/>
<path d="M423.226 393.724L425.546 433.06C425.557 433.244 425.715 433.384 425.899 433.373C426.083 433.362 426.222 433.204 426.211 433.02L423.891 393.685C423.88 393.501 423.722 393.36 423.538 393.371C423.354 393.382 423.215 393.54 423.226 393.724Z" fill="#08EEFE"/>
<path d="M427.011 393.716L428.429 417.74C428.438 417.882 428.535 418.002 428.673 418.041L433.971 419.512L434.666 436.426C434.673 436.61 434.83 436.753 435.014 436.745C435.196 436.738 435.34 436.583 435.333 436.399L434.627 419.243C434.62 419.098 434.523 418.974 434.383 418.936L429.081 417.462L427.678 393.677C427.667 393.493 427.509 393.352 427.325 393.363C427.141 393.374 427.001 393.532 427.011 393.716Z" fill="#08EEFE"/>
<path d="M431.146 393.469L432.341 413.74C432.35 413.886 432.452 414.009 432.594 414.044L439.284 415.692L441.141 440.936C441.155 441.12 441.314 441.259 441.498 441.245C441.681 441.231 441.82 441.071 441.806 440.888L439.931 415.401C439.92 415.259 439.817 415.138 439.677 415.103L432.993 413.456L431.812 393.43C431.801 393.246 431.643 393.106 431.459 393.116C431.275 393.127 431.135 393.285 431.146 393.469Z" fill="#08EEFE"/>
</svg>
